<svg id="Layer_1" data-name="Layer 1" xmlns="http://www.w3.org/2000/svg" viewBox="0 0 216 216"><defs><style>.cls-1{fill:#e5e5e5;}.cls-2{fill:#999;}.cls-3{fill:#fff;}</style></defs><title>TechStack</title><path class="cls-1" d="M197.65,50.2l-84-48.34A10.29,10.29,0,0,0,108.28.65a12.4,12.4,0,0,0-5.39,1.21L19.43,50.37c-2.95,1.74-5,6.09-5,9.39v96.85a10.26,10.26,0,0,0,1.74,6.09L201.83,54.89A12.35,12.35,0,0,0,197.65,50.2Z"/><path class="cls-2" d="M15.61,162.52a9.94,9.94,0,0,0,3.3,3.31l83.81,48.51a10.29,10.29,0,0,0,5.39,1.21,12.43,12.43,0,0,0,5.39-1.21L197,165.83c2.95-1.74,5-6.09,5-9.39V59.59a9.87,9.87,0,0,0-1-4.87Z"/><path class="cls-3" d="M145.32,129.14a42.69,42.69,0,1,1,0-41.91l22.6-13a68.66,68.66,0,1,0-.17,68.16Zm20.34-17.21,1.56-7.48h-7.3V96.28h8.87l2.09-10.78h8.52l-2.09,10.6h6.61L186,85.5h8.35l-2.09,10.6h4.18v8.17H190.7l-1.57,7.48h7.31v8.17h-8.87l-2.09,10.44H177l2.09-10.44h-6.61l-2.09,10.44H162l2.09-10.44h-4.18v-8.17h5.74Zm8.35,0h6.6l1.57-7.48h-6.61Z"/></svg>