<svg id="Layer_1" data-name="Layer 1" xmlns="http://www.w3.org/2000/svg" viewBox="0 0 216 216"><defs><style>.cls-1{fill:#999;}.cls-2{fill:#e5e5e5;}.cls-3{fill:#ebebeb;}.cls-4{fill:#fff;}</style></defs><title>TechStack</title><path class="cls-1" d="M111.51,216l-62.2-17.27L35.45,43.25H187.77L173.89,198.71,111.51,216Z"/><path class="cls-2" d="M162,188.81,173.87,56H111.61V202.78l50.4-14Z"/><path class="cls-3" d="M67.22,113.63l1.71,19.07h42.68V113.63Z"/><path class="cls-3" d="M63.79,75,65.52,94.1h46.09V75Z"/><path class="cls-3" d="M111.61,163.15l-.09,0-21.24-5.74-1.35-15.21H69.78l2.68,29.94L111.52,183l.09,0V163.15Z"/><path class="cls-1" d="M71.29,1h23.1v9.66H81v9.66H94.39V30H71.29V1Z"/><path class="cls-1" d="M99,1H122.1V9.4H108.67v1.68H122.1V30.39H99V21.58h13.43V19.9H99V1Z"/><path class="cls-1" d="M126.72,1h23.1V9.4H136.38v1.68h13.44V30.39h-23.1V21.58h13.44V19.9H126.72V1Z"/><path class="cls-4" d="M155.86,113.63,159.31,75H111.54V94.1h26.87l-1.74,19.53H111.54V132.7H135l-2.21,24.73-21.27,5.74V183l39.09-10.84.29-3.22,4.48-50.2.46-5.12Z"/></svg>