<svg id="Layer_1" data-name="Layer 1" xmlns="http://www.w3.org/2000/svg" viewBox="0 0 216 216"><defs><style>.cls-1{fill:#e5e5e5;}.cls-2{fill:#999;}</style></defs><title>TechStack</title><rect class="cls-1" width="216" height="216" rx="7.38"/><path class="cls-2" d="M192.3,68.26a1,1,0,0,0-.3-.78,1.89,1.89,0,0,0-1.13-.27h-.77v2.11H191c.86,0,1.28-.36,1.28-1.06Zm1.19,4.39h-1.05l-.67-1.49c-.34-.74-.71-1.11-1.1-1.11h-.57v2.6h-.87V66.47H191a2.58,2.58,0,0,1,1.75.52,1.47,1.47,0,0,1,.51,1.16,1.51,1.51,0,0,1-.42,1.08,2.13,2.13,0,0,1-1.15.61v0c.34.08.69.45,1,1.14l.81,1.64Zm1.93-3a4.34,4.34,0,0,0-7.35-3.05,4.19,4.19,0,0,0-1.22,3.05,4.29,4.29,0,1,0,8.57,0Zm.58,0A4.6,4.6,0,0,1,194.59,73a4.73,4.73,0,0,1-3.47,1.39,4.81,4.81,0,0,1-3.47-1.35,4.84,4.84,0,0,1,3.51-8.25,4.72,4.72,0,0,1,3.42,1.33A4.57,4.57,0,0,1,196,69.59Z"/><path class="cls-2" d="M64.06,86.81h-3V69.68c0-1.35.09-3,.24-4.94h-.06a15.48,15.48,0,0,1-.77,2.47l-8.69,19.6H50.33L41.62,67.35a13.54,13.54,0,0,1-.77-2.61h-.06c.09,1,.14,2.68.14,5V86.81H38.05V61.31h4l7.82,17.78a24.14,24.14,0,0,1,1.16,3h.12c.51-1.39.91-2.44,1.22-3.13l8-17.7h3.75v25.5Z"/><path class="cls-2" d="M73.26,86.81H70.35V68.6h2.91V86.81Zm.5-24.74a1.79,1.79,0,0,1-.56,1.35,1.83,1.83,0,0,1-1.35.55,1.87,1.87,0,0,1-1.35-.53A1.82,1.82,0,0,1,70,62.07a1.8,1.8,0,0,1,.55-1.34,2,2,0,0,1,2.7,0,1.77,1.77,0,0,1,.56,1.34Z"/><path class="cls-2" d="M91.43,86a9.31,9.31,0,0,1-5,1.29,8.19,8.19,0,0,1-6.31-2.6,9.19,9.19,0,0,1-2.35-6.51,10.14,10.14,0,0,1,2.58-7.23,9,9,0,0,1,6.9-2.76,9.19,9.19,0,0,1,4.21.93v3a7.32,7.32,0,0,0-4.33-1.43,5.85,5.85,0,0,0-4.54,1.94,7.51,7.51,0,0,0-1.83,5.3,7.21,7.21,0,0,0,1.68,5A5.79,5.79,0,0,0,87,84.76a7.28,7.28,0,0,0,4.48-1.57V86Z"/><path class="cls-2" d="M105.34,71.55a3.89,3.89,0,0,0-5.21,1,8,8,0,0,0-1.37,5v9.29H95.85V68.6h2.91v3.75h.07a6.4,6.4,0,0,1,2-3.08,4.34,4.34,0,0,1,2.78-1,4.6,4.6,0,0,1,1.75.25v3Z"/><path class="cls-2" d="M121.59,77.73A8,8,0,0,0,120,72.4a5.39,5.39,0,0,0-4.29-1.76,5.61,5.61,0,0,0-4.35,1.78,7.74,7.74,0,0,0-1.72,5.39,7.36,7.36,0,0,0,1.65,5.11,5.65,5.65,0,0,0,4.42,1.84,5.34,5.34,0,0,0,4.39-1.87,8,8,0,0,0,1.48-5.16m3-.1a9.8,9.8,0,0,1-2.46,7,8.59,8.59,0,0,1-6.61,2.63A8.35,8.35,0,0,1,109,84.61a9.49,9.49,0,0,1-2.35-6.7c0-3.17.89-5.61,2.67-7.34a9.06,9.06,0,0,1,6.61-2.42,8.21,8.21,0,0,1,6.37,2.52,10.08,10.08,0,0,1,2.28,7"/><path class="cls-2" d="M139,81.93a4.77,4.77,0,0,1-1.67,3.72,7.37,7.37,0,0,1-5,1.59,9,9,0,0,1-4.52-1.09V83a7.36,7.36,0,0,0,4.74,1.75c2.3,0,3.46-.85,3.46-2.55a2.23,2.23,0,0,0-.76-1.75,12.07,12.07,0,0,0-3-1.68A9.43,9.43,0,0,1,129,76.72a5,5,0,0,1,.64-7.06,6.89,6.89,0,0,1,4.62-1.51,8.62,8.62,0,0,1,3.89.85v2.94a6.84,6.84,0,0,0-4.13-1.3,3.59,3.59,0,0,0-2.32.71,2.27,2.27,0,0,0-.87,1.83,2.43,2.43,0,0,0,.73,1.89,10.27,10.27,0,0,0,2.73,1.51,10.4,10.4,0,0,1,3.36,2A4.5,4.5,0,0,1,139,81.93"/><path class="cls-2" d="M156.84,77.73a7.91,7.91,0,0,0-1.58-5.33A5.38,5.38,0,0,0,151,70.64a5.63,5.63,0,0,0-4.36,1.78,7.74,7.74,0,0,0-1.72,5.39,7.45,7.45,0,0,0,1.64,5.11A5.72,5.72,0,0,0,151,84.76a5.34,5.34,0,0,0,4.39-1.87,8,8,0,0,0,1.47-5.16m3-.1a9.84,9.84,0,0,1-2.46,7,8.6,8.6,0,0,1-6.62,2.63,8.33,8.33,0,0,1-6.5-2.63,9.49,9.49,0,0,1-2.35-6.7c0-3.17.89-5.61,2.66-7.34a9.08,9.08,0,0,1,6.62-2.42,8.19,8.19,0,0,1,6.36,2.52,10,10,0,0,1,2.29,7"/><path class="cls-2" d="M172.68,62.41a3.86,3.86,0,0,0-1.93-.48c-2.05,0-3.06,1.29-3.06,3.86V68.6H172v2.47h-4.27V86.81h-2.92V71.07h-3.09V68.6h3.09v-3a6.05,6.05,0,0,1,1.87-4.71,5.61,5.61,0,0,1,3.93-1.47,5.67,5.67,0,0,1,2.11.32v2.63Z"/><path class="cls-2" d="M184.19,86.62a5.46,5.46,0,0,1-2.74.59q-4.77,0-4.77-5.37V71.07h-3.12V68.6h3.12V64.15l2.92-.94V68.6h4.59v2.47H179.6V81.34a4.13,4.13,0,0,0,.62,2.6,2.49,2.49,0,0,0,2.08.78,3.12,3.12,0,0,0,1.89-.58v2.48Z"/><path class="cls-2" d="M26.62,157.88a5.29,5.29,0,0,1-5.27,5.26,4.84,4.84,0,0,1-3.63-1.56,5.39,5.39,0,0,1,0-7.44,4.88,4.88,0,0,1,3.63-1.53,5,5,0,0,1,3.73,1.55,5.13,5.13,0,0,1,1.54,3.72"/><path class="cls-2" d="M91.88,162.07h-9.5L47.87,108.78a24.19,24.19,0,0,1-2.09-4.2h-.29a68.19,68.19,0,0,1,.38,9.19v48.3H38V95.21H48.2l33.47,52.45c1.34,2.08,2.25,3.57,2.71,4.47h.19a70.09,70.09,0,0,1-.48-9.83V95.21h7.79v66.86Z"/><path class="cls-2" d="M142.12,162.07H106.69V95.21h33.89v7.09H114.52v22.24h24.15v7.08H114.52V155h27.6v7.09Z"/><path class="cls-2" d="M195.87,102.3H176.61v59.77h-7.83V102.3h-19.3V95.21h46.39v7.09Z"/></svg>