<svg id="Layer_1" data-name="Layer 1" xmlns="http://www.w3.org/2000/svg" viewBox="0 0 216 216"><defs><style>.cls-1{fill:#999;}.cls-2{fill:#e5e5e5;}.cls-3{fill:#ebebeb;}.cls-4{fill:#fff;}</style></defs><title>TechStack</title><path class="cls-1" d="M191.47,42.45,177.53,198.63,114.87,216l-62.5-17.35L38.45,42.45Z"/><path class="cls-2" d="M115,202.72l50.64-14L177.51,55.22H115v147.5Z"/><path class="cls-3" d="M87.86,93.54H115V74.38h-48l.46,5.14,4.71,52.79H115V113.15H89.61L87.86,93.54Z"/><path class="cls-3" d="M92.18,141.89H72.94L75.63,172l39.24,10.89.09,0V162.91l-.08,0-21.34-5.76-1.36-15.28Z"/><path class="cls-1" d="M52.68,0h9.74V9.62h8.9V0h9.74V29.13H71.32V19.37h-8.9v9.76H52.68V0Z"/><path class="cls-1" d="M93.86,9.66H85.29V0h26.88V9.66H103.6V29.13H93.86V9.66Z"/><path class="cls-1" d="M116.44,0h10.15l6.25,10.23L139.08,0h10.15V29.13h-9.7V14.69l-6.69,10.36h-.17L126,14.69V29.13h-9.53V0Z"/><path class="cls-1" d="M154.08,0h9.73V19.5h13.7v9.63H154.08V0Z"/><path class="cls-4" d="M114.89,132.31h23.59l-2.22,24.85-21.37,5.76v19.94L154.17,172l.29-3.24L159,118.3l.46-5.15H114.89v19.16Z"/><path class="cls-4" d="M114.89,93.49v.05h46.28l.38-4.31.87-9.71.46-5.14h-48V93.49Z"/></svg>