<svg id="Layer_1" data-name="Layer 1" xmlns="http://www.w3.org/2000/svg" viewBox="0 0 216 216"><defs><style>.cls-1{fill:#e5e5e5;}.cls-2{fill:#999;}</style></defs><title>TechStack</title><rect class="cls-1" width="216" height="216" rx="7.38"/><polygon class="cls-2" points="56.79 180.5 56.8 180.5 56.79 180.5 56.79 180.5"/><path class="cls-2" d="M97.25,168.18c0,10.15-4.21,12.76-10.88,12.76-7,0-9.86-4.78-13.05-10.44l-16.53,10c4.79,10.14,14.22,18.55,30.45,18.55,18,0,30.31-9.57,30.31-30.59V99.16H97.25Z"/><path class="cls-2" d="M172.21,138.89l-5.07-2.17c-8.7-3.77-12.47-6.24-12.47-12.33,0-4.93,3.77-8.7,9.71-8.7s9.57,2.47,13.05,8.7l15.81-10.15C186.57,102.5,177.29,98,164.38,98c-18.12,0-29.72,11.6-29.72,26.83,0,16.53,9.72,24.36,24.36,30.59l5.07,2.18c9.28,4.06,14.79,6.52,14.79,13.48,0,5.8-5.36,10-13.77,10-10,0-15.66-5.22-20-12.33l-16.53,9.57h0c6,11.75,18.13,20.73,37,20.73,19.29,0,33.64-10,33.64-28.27C199.18,153.83,189.47,146.29,172.21,138.89Z"/></svg>