<svg id="Layer_1" data-name="Layer 1" xmlns="http://www.w3.org/2000/svg" viewBox="0 0 216 216"><defs><style>.cls-1{fill:#e5e5e5;}.cls-2{fill:#999;}</style></defs><title>TechStack</title><rect class="cls-1" width="216" height="216" rx="7.38"/><path class="cls-2" d="M172.15,78.21c-2-.7-4.14-1.36-6.31-2,.36-1.45.69-2.89,1-4.3,4.77-23.18,1.65-41.86-9-48-10.23-5.9-26.95.25-43.84,15-1.62,1.41-3.25,2.91-4.88,4.48-1.08-1-2.17-2-3.25-3C88.14,24.62,70.4,18,59.75,24.17c-10.22,5.91-13.24,23.47-8.94,45.44.41,2.12.9,4.29,1.45,6.49-2.51.72-4.94,1.48-7.26,2.28C24.25,85.62,11,97,11,108.72c0,12.15,14.23,24.33,35.84,31.72q2.56.87,5.3,1.65c-.59,2.39-1.11,4.72-1.54,7-4.1,21.59-.9,38.73,9.29,44.61,10.52,6.07,28.18-.17,45.38-15.2q2-1.78,4.09-3.77c1.77,1.7,3.54,3.32,5.3,4.83,16.66,14.34,33.11,20.13,43.29,14.23,10.51-6.08,13.93-24.5,9.49-46.9-.34-1.72-.73-3.46-1.17-5.24,1.24-.37,2.45-.75,3.64-1.14C192.38,133.06,207,121,207,108.72c0-11.81-13.68-23.22-34.85-30.51Zm-4.87,54.35c-1.07.35-2.17.7-3.29,1a196.23,196.23,0,0,0-9.93-24.83,196.15,196.15,0,0,0,9.54-24.47c2,.58,4,1.19,5.83,1.84,18.13,6.24,29.2,15.48,29.2,22.59,0,7.58-11.95,17.41-31.35,23.84Zm-8.05,15.95c2,9.91,2.24,18.87.94,25.87-1.17,6.29-3.51,10.49-6.42,12.17-6.17,3.57-19.38-1.07-33.63-13.33-1.63-1.41-3.28-2.91-4.93-4.5a196,196,0,0,0,16.43-20.86,194.8,194.8,0,0,0,26.55-4.09c.4,1.61.75,3.19,1.06,4.74ZM77.82,185.93c-6,2.13-10.84,2.19-13.75.52-6.18-3.57-8.75-17.33-5.24-35.8q.6-3.17,1.43-6.51A196.06,196.06,0,0,0,86.67,148a202.29,202.29,0,0,0,16.83,20.78q-1.87,1.81-3.74,3.44c-7.6,6.65-15.22,11.37-21.94,13.74ZM49.55,132.51C40,129.25,32.1,125,26.69,120.37c-4.86-4.16-7.32-8.3-7.32-11.65,0-7.14,10.64-16.24,28.39-22.43,2.15-.75,4.41-1.46,6.75-2.12a200.22,200.22,0,0,0,9.55,24.75A203.5,203.5,0,0,0,54.39,134c-1.67-.48-3.29-1-4.84-1.52ZM59,68c-3.69-18.82-1.24-33,4.91-36.59C70.5,27.62,85,33,100.28,46.6c1,.87,2,1.77,2.94,2.71A200.74,200.74,0,0,0,86.53,70,203.74,203.74,0,0,0,60.37,74C59.86,72,59.41,70,59,68Zm84.54,20.88q-2.91-5-6-9.8c6.25.79,12.25,1.84,17.87,3.12a178.7,178.7,0,0,1-6.27,16.88q-2.67-5.07-5.64-10.2ZM109.09,55.3a177.42,177.42,0,0,1,11.54,13.92Q114.87,69,109,69t-11.54.27c3.81-5,7.71-9.69,11.63-13.92ZM74.4,88.94q-2.91,5-5.54,10.13c-2.44-5.78-4.52-11.47-6.23-17,5.6-1.25,11.56-2.27,17.77-3-2.05,3.21-4.06,6.51-6,9.88Zm6.18,50a175.55,175.55,0,0,1-18.06-2.9c1.73-5.59,3.86-11.4,6.35-17.31q2.64,5.08,5.56,10.15h0c2,3.43,4,6.79,6.15,10.06Zm28.75,23.76c-4-4.28-7.93-9-11.8-14.11,3.76.14,7.58.22,11.47.22s7.94-.09,11.83-.26a180.67,180.67,0,0,1-11.5,14.15Zm40-44.27a176,176,0,0,1,6.58,17.25,178.1,178.1,0,0,1-18.28,3.11q3-4.83,6-10t5.69-10.39Zm-12.94,6.21c-3.06,5.31-6.21,10.38-9.4,15.17-5.82.41-11.83.63-18,.63s-12-.19-17.75-.56c-3.32-4.85-6.53-9.94-9.58-15.2h0c-3-5.24-5.83-10.53-8.36-15.79,2.53-5.27,5.32-10.57,8.34-15.8h0c3-5.25,6.21-10.31,9.5-15.13C97,77.55,103,77.32,109,77.32h0c6.07,0,12,.23,17.88.68,3.24,4.78,6.41,9.82,9.44,15.07s5.9,10.57,8.45,15.73c-2.54,5.25-5.36,10.56-8.42,15.87Zm17.27-93.51c6.57,3.79,9.12,19.05,5,39.07-.27,1.28-.56,2.58-.88,3.9A200.81,200.81,0,0,0,131.53,70,197.86,197.86,0,0,0,115,49.31q2.27-2.18,4.51-4.13c14.47-12.6,28-17.57,34.15-14ZM109,91.22a17.5,17.5,0,1,1-17.5,17.5A17.49,17.49,0,0,1,109,91.22Z"/></svg>